<svg t="1716434658982" class="icon" viewBox="0 0 1638 1024" version="1.1" xmlns="http://www.w3.org/2000/svg" p-id="3089" width="64" height="64"><path d="M1153.092267 523.264c0-191.488-155.204267-348.296533-346.658134-348.296533-191.453867 0-346.624 155.204267-346.624 346.658133v353.1776h343.381334c193.2288 0 349.9008-158.3104 349.9008-351.573333z" fill="#50DEFF" opacity=".5" p-id="3090"></path><path d="M132.437333 710.690133a58.026667 58.026667 0 0 0-16.861866 40.96c0 15.4624 5.9392 30.0032 16.725333 40.891734 10.820267 10.922667 25.258667 16.930133 40.5504 16.930133l64.989867-0.1024v0.2048l114.688-0.2048 0.273066-178.961067v-0.785066a57.685333 57.685333 0 0 0-17.237333-39.867734 56.9344 56.9344 0 0 0-80.5888 0.648534 58.094933 58.094933 0 0 0-16.861867 39.355733l-1.809066 63.829333-63.249067 0.1024h-0.2048c-15.223467 0-29.5936 6.075733-40.413867 16.9984z m-45.841066-46.2848A121.9584 121.9584 0 0 1 173.1584 628.053333h0.068267a124.1088 124.1088 0 0 1 35.9424-83.968 121.9584 121.9584 0 0 1 86.596266-36.352c66.525867-0.1024 120.490667 53.3504 122.094934 120.081067h0.034133l-0.477867 246.9888-244.6336 0.4096v-0.2048c-67.549867 0.1024-122.231467-55.125333-122.129066-123.2896 0-34.133333 13.789867-64.989867 35.9424-87.381333zM1013.1456 403.7632c-0.512 39.185067-18.909867 59.733333-55.1936 61.576533-8.260267 0.8192-28.672 1.2288-61.201067 1.2288a362.9056 362.9056 0 0 0-12.3904-52.804266c21.060267 0.785067 38.126933 1.3312 51.2 1.604266 14.916267 0.512 22.664533-5.632 23.210667-18.432 0.785067-23.210667 1.467733-43.178667 1.979733-59.972266H898.389333c-3.208533 33.860267-12.117333 62.122667-26.794666 84.7872-18.670933 29.0816-51.063467 54.135467-97.211734 75.195733-9.3184-13.585067-20.821333-27.989333-34.4064-43.178667 41.8816-17.885867 70.417067-37.0688 85.6064-57.617066 11.195733-14.1312 18.261333-33.860267 21.1968-59.1872h-88.405333v-44.032h258.048c-1.365333 57.070933-2.423467 94.0032-3.242667 110.830933z m-279.995733 210.397867h39.594666v-104.413867h51.2v104.413867h48.0256v-136.3968h52.804267v37.5808h90.794667v44.817066h-90.794667v53.998934h105.5744v45.602133H733.184v-45.602133z m-53.589334-111.991467c16.520533 7.168 33.723733 13.448533 51.6096 18.773333-12.288 45.602133-24.6784 94.8224-37.205333 147.626667-17.885867-6.144-35.498667-11.605333-52.804267-16.384 13.585067-42.973867 26.385067-92.9792 38.4-150.050133z m-1.604266-220.398933c25.6 17.3056 48.674133 34.5088 69.188266 51.575466l-39.594666 41.608534a813.6704 813.6704 0 0 0-65.194667-57.207467l35.601067-35.976533z m-11.9808 104.379733c20.241067 14.677333 41.437867 31.607467 63.5904 50.7904l-36.420267 42.8032a2301.678933 2301.678933 0 0 0-60.0064-55.6032l32.836267-37.9904z m64.785066 13.994667c15.189333-17.851733 29.866667-37.341867 43.997867-58.368l41.984 21.162666a607.573333 607.573333 0 0 1-44.782933 62.805334c-15.189333-9.864533-28.945067-18.397867-41.198934-25.6zM1305.668267 128l5.3248 171.144533 0.034133-0.034133c-1.365333 16.9984 13.687467 32.187733 30.549333 30.8224l-0.546133 0.546133 170.5984 5.393067c11.9808 0.4096 23.825067-1.570133 34.816-5.870933a84.309333 84.309333 0 0 0 48.128-48.605867c4.266667-11.093333 6.280533-23.04 5.870933-35.157333-1.604267-51.0976-43.9296-93.866667-94.549333-95.4368l-16.384-0.512-0.477867-16.520534c-1.604267-51.0976-43.9296-93.832533-94.549333-95.4368a87.176533 87.176533 0 0 0-34.816 5.905067 84.241067 84.241067 0 0 0-48.128 48.605867 89.429333 89.429333 0 0 0-5.870933 35.157333z" fill="#50DEFF" p-id="3091"></path></svg>